<mxfile host="app.diagrams.net" modified="2024-04-10T14:21:22.152Z" agent="Mozilla/5.0 (Windows NT 10.0; Win64; x64) AppleWebKit/537.36 (KHTML, like Gecko) Chrome/123.0.0.0 Safari/537.36" etag="gsV4D5GapeGC_oteQ8xM" version="24.2.3" type="onedrive">
  <diagram name="Página-1" id="twLZTXnY87G3ackWWRE2">
    <mxGraphModel dx="1434" dy="780" grid="1" gridSize="10" guides="1" tooltips="1" connect="1" arrows="1" fold="1" page="1" pageScale="1" pageWidth="827" pageHeight="1169" math="0" shadow="0">
      <root>
        <mxCell id="0" />
        <mxCell id="1" parent="0" />
        <mxCell id="cr6V4LzBoTKODNCof_65-1" value="&lt;font style=&quot;font-size: 18px;&quot;&gt;&lt;b&gt;ÍNICIO&lt;/b&gt;&lt;/font&gt;" style="ellipse;whiteSpace=wrap;html=1;" parent="1" vertex="1">
          <mxGeometry x="190" y="70" width="120" height="80" as="geometry" />
        </mxCell>
        <mxCell id="cr6V4LzBoTKODNCof_65-2" value="" style="endArrow=classic;html=1;rounded=0;exitX=0.5;exitY=1;exitDx=0;exitDy=0;entryX=0.5;entryY=0;entryDx=0;entryDy=0;" parent="1" source="cr6V4LzBoTKODNCof_65-1" target="cr6V4LzBoTKODNCof_65-6" edge="1">
          <mxGeometry width="50" height="50" relative="1" as="geometry">
            <mxPoint x="390" y="330" as="sourcePoint" />
            <mxPoint x="170" y="220" as="targetPoint" />
            <Array as="points" />
          </mxGeometry>
        </mxCell>
        <mxCell id="cr6V4LzBoTKODNCof_65-5" value="" style="endArrow=classic;html=1;rounded=0;exitX=0.667;exitY=0.975;exitDx=0;exitDy=0;exitPerimeter=0;entryX=0.5;entryY=0;entryDx=0;entryDy=0;" parent="1" source="cr6V4LzBoTKODNCof_65-1" target="cr6V4LzBoTKODNCof_65-7" edge="1">
          <mxGeometry width="50" height="50" relative="1" as="geometry">
            <mxPoint x="390" y="330" as="sourcePoint" />
            <mxPoint x="330" y="220" as="targetPoint" />
          </mxGeometry>
        </mxCell>
        <mxCell id="cr6V4LzBoTKODNCof_65-6" value="&lt;div style=&quot;text-align: left;&quot;&gt;&lt;font style=&quot;font-size: 18px;&quot;&gt;&lt;b&gt;Z1&lt;/b&gt;&lt;/font&gt;&lt;/div&gt;" style="shape=parallelogram;perimeter=parallelogramPerimeter;whiteSpace=wrap;html=1;fixedSize=1;" parent="1" vertex="1">
          <mxGeometry x="110" y="220" width="120" height="60" as="geometry" />
        </mxCell>
        <mxCell id="cr6V4LzBoTKODNCof_65-7" value="&lt;font style=&quot;font-size: 18px;&quot;&gt;&lt;b&gt;Z2&lt;/b&gt;&lt;/font&gt;" style="shape=parallelogram;perimeter=parallelogramPerimeter;whiteSpace=wrap;html=1;fixedSize=1;" parent="1" vertex="1">
          <mxGeometry x="260" y="220" width="120" height="60" as="geometry" />
        </mxCell>
        <mxCell id="cr6V4LzBoTKODNCof_65-8" value="&lt;font style=&quot;font-size: 18px;&quot;&gt;&lt;b&gt;R=Z1/Z2&lt;/b&gt;&lt;/font&gt;" style="rounded=0;whiteSpace=wrap;html=1;" parent="1" vertex="1">
          <mxGeometry x="170" y="320" width="120" height="60" as="geometry" />
        </mxCell>
        <mxCell id="cr6V4LzBoTKODNCof_65-9" value="" style="endArrow=classic;html=1;rounded=0;exitX=0.433;exitY=1.05;exitDx=0;exitDy=0;exitPerimeter=0;entryX=0.358;entryY=0.017;entryDx=0;entryDy=0;entryPerimeter=0;" parent="1" source="cr6V4LzBoTKODNCof_65-6" target="cr6V4LzBoTKODNCof_65-8" edge="1">
          <mxGeometry width="50" height="50" relative="1" as="geometry">
            <mxPoint x="390" y="330" as="sourcePoint" />
            <mxPoint x="440" y="280" as="targetPoint" />
          </mxGeometry>
        </mxCell>
        <mxCell id="cr6V4LzBoTKODNCof_65-10" value="" style="endArrow=classic;html=1;rounded=0;exitX=0.358;exitY=1.05;exitDx=0;exitDy=0;exitPerimeter=0;entryX=0.683;entryY=0.017;entryDx=0;entryDy=0;entryPerimeter=0;" parent="1" source="cr6V4LzBoTKODNCof_65-7" target="cr6V4LzBoTKODNCof_65-8" edge="1">
          <mxGeometry width="50" height="50" relative="1" as="geometry">
            <mxPoint x="390" y="330" as="sourcePoint" />
            <mxPoint x="440" y="280" as="targetPoint" />
          </mxGeometry>
        </mxCell>
        <mxCell id="cr6V4LzBoTKODNCof_65-11" value="" style="endArrow=classic;html=1;rounded=0;exitX=0.25;exitY=1;exitDx=0;exitDy=0;entryX=0.25;entryY=0;entryDx=0;entryDy=0;" parent="1" source="cr6V4LzBoTKODNCof_65-8" target="cr6V4LzBoTKODNCof_65-13" edge="1">
          <mxGeometry width="50" height="50" relative="1" as="geometry">
            <mxPoint x="390" y="330" as="sourcePoint" />
            <mxPoint x="210" y="420" as="targetPoint" />
          </mxGeometry>
        </mxCell>
        <mxCell id="cr6V4LzBoTKODNCof_65-12" value="" style="endArrow=classic;html=1;rounded=0;entryX=0.7;entryY=0.013;entryDx=0;entryDy=0;entryPerimeter=0;exitX=0.692;exitY=1;exitDx=0;exitDy=0;exitPerimeter=0;" parent="1" source="cr6V4LzBoTKODNCof_65-8" target="cr6V4LzBoTKODNCof_65-13" edge="1">
          <mxGeometry width="50" height="50" relative="1" as="geometry">
            <mxPoint x="270" y="390" as="sourcePoint" />
            <mxPoint x="240" y="420" as="targetPoint" />
          </mxGeometry>
        </mxCell>
        <mxCell id="cr6V4LzBoTKODNCof_65-13" value="&lt;div style=&quot;text-align: left;&quot;&gt;&lt;font style=&quot;font-size: 18px;&quot;&gt;&lt;b&gt;R&lt;/b&gt;&lt;/font&gt;&lt;/div&gt;" style="shape=document;whiteSpace=wrap;html=1;boundedLbl=1;" parent="1" vertex="1">
          <mxGeometry x="170" y="420" width="120" height="80" as="geometry" />
        </mxCell>
        <mxCell id="cr6V4LzBoTKODNCof_65-15" value="" style="endArrow=classic;html=1;rounded=0;exitX=0.425;exitY=0.925;exitDx=0;exitDy=0;exitPerimeter=0;entryX=0.5;entryY=0;entryDx=0;entryDy=0;" parent="1" source="cr6V4LzBoTKODNCof_65-13" target="cr6V4LzBoTKODNCof_65-14" edge="1">
          <mxGeometry width="50" height="50" relative="1" as="geometry">
            <mxPoint x="390" y="630" as="sourcePoint" />
            <mxPoint x="440" y="580" as="targetPoint" />
          </mxGeometry>
        </mxCell>
        <mxCell id="cr6V4LzBoTKODNCof_65-20" value="" style="endArrow=classic;html=1;rounded=0;exitX=1;exitY=0;exitDx=0;exitDy=0;entryX=0.058;entryY=0.263;entryDx=0;entryDy=0;entryPerimeter=0;" parent="1" source="cr6V4LzBoTKODNCof_65-14" target="cr6V4LzBoTKODNCof_65-22" edge="1">
          <mxGeometry width="50" height="50" relative="1" as="geometry">
            <mxPoint x="390" y="630" as="sourcePoint" />
            <mxPoint x="350" y="553" as="targetPoint" />
          </mxGeometry>
        </mxCell>
        <mxCell id="cr6V4LzBoTKODNCof_65-24" value="NÃO" style="edgeLabel;html=1;align=center;verticalAlign=middle;resizable=0;points=[];" parent="cr6V4LzBoTKODNCof_65-20" connectable="0" vertex="1">
          <mxGeometry x="0.0008" y="2" relative="1" as="geometry">
            <mxPoint as="offset" />
          </mxGeometry>
        </mxCell>
        <mxCell id="cr6V4LzBoTKODNCof_65-21" value="" style="endArrow=classic;html=1;rounded=0;exitX=1;exitY=1;exitDx=0;exitDy=0;entryX=0.05;entryY=0.75;entryDx=0;entryDy=0;entryPerimeter=0;" parent="1" source="cr6V4LzBoTKODNCof_65-14" target="cr6V4LzBoTKODNCof_65-22" edge="1">
          <mxGeometry width="50" height="50" relative="1" as="geometry">
            <mxPoint x="390" y="630" as="sourcePoint" />
            <mxPoint x="350" y="600" as="targetPoint" />
          </mxGeometry>
        </mxCell>
        <mxCell id="cr6V4LzBoTKODNCof_65-23" value="SIM" style="edgeLabel;html=1;align=center;verticalAlign=middle;resizable=0;points=[];" parent="cr6V4LzBoTKODNCof_65-21" connectable="0" vertex="1">
          <mxGeometry x="0.1707" y="2" relative="1" as="geometry">
            <mxPoint as="offset" />
          </mxGeometry>
        </mxCell>
        <mxCell id="cr6V4LzBoTKODNCof_65-22" value="FIM" style="ellipse;whiteSpace=wrap;html=1;" parent="1" vertex="1">
          <mxGeometry x="354" y="530" width="120" height="80" as="geometry" />
        </mxCell>
        <mxCell id="cr6V4LzBoTKODNCof_65-25" value="1" style="swimlane;" parent="1" vertex="1">
          <mxGeometry x="70" y="20" width="420" height="630" as="geometry" />
        </mxCell>
        <mxCell id="cr6V4LzBoTKODNCof_65-26" value="1" style="swimlane;" parent="1" vertex="1">
          <mxGeometry x="70" y="20" width="420" height="630" as="geometry" />
        </mxCell>
        <mxCell id="cr6V4LzBoTKODNCof_65-14" value="&lt;font style=&quot;font-size: 18px;&quot;&gt;&lt;b&gt;R&amp;gt;0&lt;/b&gt;&lt;/font&gt;" style="rhombus;whiteSpace=wrap;html=1;" parent="cr6V4LzBoTKODNCof_65-26" vertex="1">
          <mxGeometry x="100" y="510" width="100" height="90" as="geometry" />
        </mxCell>
        <mxCell id="cr6V4LzBoTKODNCof_65-27" value="2" style="swimlane;" parent="1" vertex="1">
          <mxGeometry x="490" y="20" width="450" height="630" as="geometry" />
        </mxCell>
        <mxCell id="cr6V4LzBoTKODNCof_65-28" value="&lt;font style=&quot;font-size: 18px;&quot;&gt;&lt;b&gt;ÍNICIO&lt;/b&gt;&lt;/font&gt;" style="ellipse;whiteSpace=wrap;html=1;" parent="cr6V4LzBoTKODNCof_65-27" vertex="1">
          <mxGeometry x="150" y="40" width="120" height="80" as="geometry" />
        </mxCell>
        <mxCell id="cr6V4LzBoTKODNCof_65-29" value="&lt;font style=&quot;font-size: 18px;&quot;&gt;&lt;b&gt;Z1&lt;/b&gt;&lt;/font&gt;" style="shape=parallelogram;perimeter=parallelogramPerimeter;whiteSpace=wrap;html=1;fixedSize=1;" parent="cr6V4LzBoTKODNCof_65-27" vertex="1">
          <mxGeometry x="60" y="140" width="120" height="60" as="geometry" />
        </mxCell>
        <mxCell id="cr6V4LzBoTKODNCof_65-30" value="&lt;font style=&quot;font-size: 18px;&quot;&gt;&lt;b&gt;Z2&lt;/b&gt;&lt;/font&gt;" style="shape=parallelogram;perimeter=parallelogramPerimeter;whiteSpace=wrap;html=1;fixedSize=1;" parent="cr6V4LzBoTKODNCof_65-27" vertex="1">
          <mxGeometry x="210" y="140" width="120" height="60" as="geometry" />
        </mxCell>
        <mxCell id="cr6V4LzBoTKODNCof_65-31" value="" style="endArrow=classic;html=1;rounded=0;exitX=0;exitY=1;exitDx=0;exitDy=0;entryX=0.675;entryY=0.017;entryDx=0;entryDy=0;entryPerimeter=0;" parent="cr6V4LzBoTKODNCof_65-27" source="cr6V4LzBoTKODNCof_65-28" target="cr6V4LzBoTKODNCof_65-29" edge="1">
          <mxGeometry width="50" height="50" relative="1" as="geometry">
            <mxPoint x="240" y="310" as="sourcePoint" />
            <mxPoint x="290" y="260" as="targetPoint" />
          </mxGeometry>
        </mxCell>
        <mxCell id="cr6V4LzBoTKODNCof_65-34" value="" style="endArrow=classic;html=1;rounded=0;exitX=0.717;exitY=0.975;exitDx=0;exitDy=0;exitPerimeter=0;entryX=0.442;entryY=0;entryDx=0;entryDy=0;entryPerimeter=0;" parent="cr6V4LzBoTKODNCof_65-27" source="cr6V4LzBoTKODNCof_65-28" target="cr6V4LzBoTKODNCof_65-30" edge="1">
          <mxGeometry width="50" height="50" relative="1" as="geometry">
            <mxPoint x="240" y="310" as="sourcePoint" />
            <mxPoint x="290" y="260" as="targetPoint" />
          </mxGeometry>
        </mxCell>
        <mxCell id="cr6V4LzBoTKODNCof_65-35" value="&lt;font style=&quot;font-size: 18px;&quot;&gt;&lt;b&gt;R=Z1*Z2&lt;/b&gt;&lt;/font&gt;" style="rounded=0;whiteSpace=wrap;html=1;" parent="cr6V4LzBoTKODNCof_65-27" vertex="1">
          <mxGeometry x="130" y="260" width="120" height="60" as="geometry" />
        </mxCell>
        <mxCell id="cr6V4LzBoTKODNCof_65-36" value="" style="endArrow=classic;html=1;rounded=0;exitX=0.5;exitY=1;exitDx=0;exitDy=0;entryX=0.25;entryY=0;entryDx=0;entryDy=0;" parent="cr6V4LzBoTKODNCof_65-27" source="cr6V4LzBoTKODNCof_65-29" target="cr6V4LzBoTKODNCof_65-35" edge="1">
          <mxGeometry width="50" height="50" relative="1" as="geometry">
            <mxPoint x="240" y="310" as="sourcePoint" />
            <mxPoint x="290" y="260" as="targetPoint" />
          </mxGeometry>
        </mxCell>
        <mxCell id="cr6V4LzBoTKODNCof_65-37" value="" style="endArrow=classic;html=1;rounded=0;exitX=0.5;exitY=1;exitDx=0;exitDy=0;entryX=0.75;entryY=0;entryDx=0;entryDy=0;" parent="cr6V4LzBoTKODNCof_65-27" source="cr6V4LzBoTKODNCof_65-30" target="cr6V4LzBoTKODNCof_65-35" edge="1">
          <mxGeometry width="50" height="50" relative="1" as="geometry">
            <mxPoint x="240" y="310" as="sourcePoint" />
            <mxPoint x="290" y="260" as="targetPoint" />
          </mxGeometry>
        </mxCell>
        <mxCell id="cr6V4LzBoTKODNCof_65-38" value="&lt;font style=&quot;font-size: 18px;&quot;&gt;&lt;b&gt;R&lt;/b&gt;&lt;/font&gt;" style="shape=document;whiteSpace=wrap;html=1;boundedLbl=1;" parent="cr6V4LzBoTKODNCof_65-27" vertex="1">
          <mxGeometry x="130" y="350" width="120" height="80" as="geometry" />
        </mxCell>
        <mxCell id="cr6V4LzBoTKODNCof_65-39" value="" style="endArrow=classic;html=1;rounded=0;exitX=0.25;exitY=1;exitDx=0;exitDy=0;entryX=0.25;entryY=0;entryDx=0;entryDy=0;" parent="cr6V4LzBoTKODNCof_65-27" source="cr6V4LzBoTKODNCof_65-35" target="cr6V4LzBoTKODNCof_65-38" edge="1">
          <mxGeometry width="50" height="50" relative="1" as="geometry">
            <mxPoint x="240" y="310" as="sourcePoint" />
            <mxPoint x="290" y="260" as="targetPoint" />
          </mxGeometry>
        </mxCell>
        <mxCell id="cr6V4LzBoTKODNCof_65-40" value="" style="endArrow=classic;html=1;rounded=0;exitX=0.75;exitY=1;exitDx=0;exitDy=0;entryX=0.75;entryY=0;entryDx=0;entryDy=0;" parent="cr6V4LzBoTKODNCof_65-27" source="cr6V4LzBoTKODNCof_65-35" target="cr6V4LzBoTKODNCof_65-38" edge="1">
          <mxGeometry width="50" height="50" relative="1" as="geometry">
            <mxPoint x="240" y="310" as="sourcePoint" />
            <mxPoint x="290" y="260" as="targetPoint" />
          </mxGeometry>
        </mxCell>
        <mxCell id="cr6V4LzBoTKODNCof_65-41" value="&lt;font style=&quot;font-size: 18px;&quot;&gt;&lt;b&gt;R&amp;gt;100&lt;/b&gt;&lt;/font&gt;" style="rhombus;whiteSpace=wrap;html=1;" parent="cr6V4LzBoTKODNCof_65-27" vertex="1">
          <mxGeometry x="130" y="450" width="100" height="90" as="geometry" />
        </mxCell>
        <mxCell id="cr6V4LzBoTKODNCof_65-42" value="" style="endArrow=classic;html=1;rounded=0;exitX=0.125;exitY=0.925;exitDx=0;exitDy=0;exitPerimeter=0;entryX=0.32;entryY=0.156;entryDx=0;entryDy=0;entryPerimeter=0;" parent="cr6V4LzBoTKODNCof_65-27" source="cr6V4LzBoTKODNCof_65-38" target="cr6V4LzBoTKODNCof_65-41" edge="1">
          <mxGeometry width="50" height="50" relative="1" as="geometry">
            <mxPoint x="240" y="310" as="sourcePoint" />
            <mxPoint x="290" y="260" as="targetPoint" />
          </mxGeometry>
        </mxCell>
        <mxCell id="cr6V4LzBoTKODNCof_65-43" value="" style="endArrow=classic;html=1;rounded=0;exitX=0.825;exitY=0.7;exitDx=0;exitDy=0;exitPerimeter=0;entryX=0.63;entryY=0.1;entryDx=0;entryDy=0;entryPerimeter=0;" parent="cr6V4LzBoTKODNCof_65-27" source="cr6V4LzBoTKODNCof_65-38" target="cr6V4LzBoTKODNCof_65-41" edge="1">
          <mxGeometry width="50" height="50" relative="1" as="geometry">
            <mxPoint x="240" y="310" as="sourcePoint" />
            <mxPoint x="290" y="260" as="targetPoint" />
          </mxGeometry>
        </mxCell>
        <mxCell id="cr6V4LzBoTKODNCof_65-44" value="&lt;font style=&quot;font-size: 18px;&quot;&gt;&lt;b&gt;FIM&lt;/b&gt;&lt;/font&gt;" style="ellipse;whiteSpace=wrap;html=1;" parent="cr6V4LzBoTKODNCof_65-27" vertex="1">
          <mxGeometry x="290" y="460" width="120" height="80" as="geometry" />
        </mxCell>
        <mxCell id="cr6V4LzBoTKODNCof_65-45" value="" style="endArrow=classic;html=1;rounded=0;exitX=1;exitY=0;exitDx=0;exitDy=0;entryX=0;entryY=0;entryDx=0;entryDy=0;" parent="cr6V4LzBoTKODNCof_65-27" source="cr6V4LzBoTKODNCof_65-41" target="cr6V4LzBoTKODNCof_65-44" edge="1">
          <mxGeometry width="50" height="50" relative="1" as="geometry">
            <mxPoint x="240" y="310" as="sourcePoint" />
            <mxPoint x="290" y="260" as="targetPoint" />
          </mxGeometry>
        </mxCell>
        <mxCell id="cr6V4LzBoTKODNCof_65-47" value="NÃO" style="edgeLabel;html=1;align=center;verticalAlign=middle;resizable=0;points=[];" parent="cr6V4LzBoTKODNCof_65-45" connectable="0" vertex="1">
          <mxGeometry x="-0.0257" y="-4" relative="1" as="geometry">
            <mxPoint as="offset" />
          </mxGeometry>
        </mxCell>
        <mxCell id="cr6V4LzBoTKODNCof_65-46" value="" style="endArrow=classic;html=1;rounded=0;exitX=1;exitY=1;exitDx=0;exitDy=0;entryX=0;entryY=1;entryDx=0;entryDy=0;" parent="cr6V4LzBoTKODNCof_65-27" source="cr6V4LzBoTKODNCof_65-41" target="cr6V4LzBoTKODNCof_65-44" edge="1">
          <mxGeometry width="50" height="50" relative="1" as="geometry">
            <mxPoint x="240" y="310" as="sourcePoint" />
            <mxPoint x="290" y="260" as="targetPoint" />
          </mxGeometry>
        </mxCell>
        <mxCell id="cr6V4LzBoTKODNCof_65-48" value="SIM" style="edgeLabel;html=1;align=center;verticalAlign=middle;resizable=0;points=[];" parent="cr6V4LzBoTKODNCof_65-46" connectable="0" vertex="1">
          <mxGeometry x="-0.1078" y="2" relative="1" as="geometry">
            <mxPoint as="offset" />
          </mxGeometry>
        </mxCell>
        <mxCell id="cr6V4LzBoTKODNCof_65-49" value="3" style="swimlane;" parent="1" vertex="1">
          <mxGeometry x="940" y="20" width="460" height="630" as="geometry" />
        </mxCell>
        <mxCell id="cr6V4LzBoTKODNCof_65-50" value="&lt;font style=&quot;font-size: 18px;&quot;&gt;&lt;b&gt;ÍNICIO&lt;/b&gt;&lt;/font&gt;" style="ellipse;whiteSpace=wrap;html=1;" parent="cr6V4LzBoTKODNCof_65-49" vertex="1">
          <mxGeometry x="180" y="40" width="120" height="80" as="geometry" />
        </mxCell>
        <mxCell id="cr6V4LzBoTKODNCof_65-51" value="&lt;font style=&quot;font-size: 18px;&quot;&gt;&lt;b&gt;B&lt;/b&gt;&lt;/font&gt;" style="shape=parallelogram;perimeter=parallelogramPerimeter;whiteSpace=wrap;html=1;fixedSize=1;" parent="cr6V4LzBoTKODNCof_65-49" vertex="1">
          <mxGeometry x="80" y="140" width="120" height="60" as="geometry" />
        </mxCell>
        <mxCell id="cr6V4LzBoTKODNCof_65-52" value="&lt;font style=&quot;font-size: 18px;&quot;&gt;&lt;b&gt;H&lt;/b&gt;&lt;/font&gt;" style="shape=parallelogram;perimeter=parallelogramPerimeter;whiteSpace=wrap;html=1;fixedSize=1;" parent="cr6V4LzBoTKODNCof_65-49" vertex="1">
          <mxGeometry x="241" y="140" width="120" height="60" as="geometry" />
        </mxCell>
        <mxCell id="cr6V4LzBoTKODNCof_65-53" value="" style="endArrow=classic;html=1;rounded=0;exitX=0;exitY=1;exitDx=0;exitDy=0;entryX=0.75;entryY=0;entryDx=0;entryDy=0;" parent="cr6V4LzBoTKODNCof_65-49" source="cr6V4LzBoTKODNCof_65-50" target="cr6V4LzBoTKODNCof_65-51" edge="1">
          <mxGeometry width="50" height="50" relative="1" as="geometry">
            <mxPoint x="60" y="310" as="sourcePoint" />
            <mxPoint x="110" y="260" as="targetPoint" />
          </mxGeometry>
        </mxCell>
        <mxCell id="cr6V4LzBoTKODNCof_65-126" value="Base" style="edgeLabel;html=1;align=center;verticalAlign=middle;resizable=0;points=[];" parent="cr6V4LzBoTKODNCof_65-53" connectable="0" vertex="1">
          <mxGeometry x="-0.3162" relative="1" as="geometry">
            <mxPoint as="offset" />
          </mxGeometry>
        </mxCell>
        <mxCell id="cr6V4LzBoTKODNCof_65-54" value="" style="endArrow=classic;html=1;rounded=0;exitX=1;exitY=1;exitDx=0;exitDy=0;entryX=0.5;entryY=0;entryDx=0;entryDy=0;" parent="cr6V4LzBoTKODNCof_65-49" source="cr6V4LzBoTKODNCof_65-50" target="cr6V4LzBoTKODNCof_65-52" edge="1">
          <mxGeometry width="50" height="50" relative="1" as="geometry">
            <mxPoint x="60" y="310" as="sourcePoint" />
            <mxPoint x="110" y="260" as="targetPoint" />
          </mxGeometry>
        </mxCell>
        <mxCell id="cr6V4LzBoTKODNCof_65-127" value="Altura" style="edgeLabel;html=1;align=center;verticalAlign=middle;resizable=0;points=[];" parent="cr6V4LzBoTKODNCof_65-54" connectable="0" vertex="1">
          <mxGeometry x="-0.2611" y="2" relative="1" as="geometry">
            <mxPoint as="offset" />
          </mxGeometry>
        </mxCell>
        <mxCell id="cr6V4LzBoTKODNCof_65-55" value="&lt;font style=&quot;font-size: 18px;&quot;&gt;&lt;b&gt;B==H&lt;/b&gt;&lt;/font&gt;" style="rhombus;whiteSpace=wrap;html=1;" parent="cr6V4LzBoTKODNCof_65-49" vertex="1">
          <mxGeometry x="160" y="240" width="100" height="80" as="geometry" />
        </mxCell>
        <mxCell id="cr6V4LzBoTKODNCof_65-56" value="" style="endArrow=classic;html=1;rounded=0;exitX=0.5;exitY=1;exitDx=0;exitDy=0;entryX=0;entryY=0;entryDx=0;entryDy=0;" parent="cr6V4LzBoTKODNCof_65-49" source="cr6V4LzBoTKODNCof_65-51" target="cr6V4LzBoTKODNCof_65-55" edge="1">
          <mxGeometry width="50" height="50" relative="1" as="geometry">
            <mxPoint x="60" y="310" as="sourcePoint" />
            <mxPoint x="110" y="260" as="targetPoint" />
          </mxGeometry>
        </mxCell>
        <mxCell id="cr6V4LzBoTKODNCof_65-57" value="" style="endArrow=classic;html=1;rounded=0;exitX=0.25;exitY=1;exitDx=0;exitDy=0;entryX=1;entryY=0;entryDx=0;entryDy=0;" parent="cr6V4LzBoTKODNCof_65-49" source="cr6V4LzBoTKODNCof_65-52" target="cr6V4LzBoTKODNCof_65-55" edge="1">
          <mxGeometry width="50" height="50" relative="1" as="geometry">
            <mxPoint x="60" y="310" as="sourcePoint" />
            <mxPoint x="110" y="260" as="targetPoint" />
          </mxGeometry>
        </mxCell>
        <mxCell id="cr6V4LzBoTKODNCof_65-62" value="&lt;font style=&quot;font-size: 18px;&quot;&gt;&lt;b&gt;FIM&lt;/b&gt;&lt;/font&gt;" style="ellipse;whiteSpace=wrap;html=1;" parent="cr6V4LzBoTKODNCof_65-49" vertex="1">
          <mxGeometry x="320" y="470" width="120" height="80" as="geometry" />
        </mxCell>
        <mxCell id="cr6V4LzBoTKODNCof_65-63" value="&lt;font style=&quot;font-size: 18px;&quot;&gt;&lt;b&gt;Os dados são de um Retângulo&lt;/b&gt;&lt;/font&gt;" style="shape=parallelogram;perimeter=parallelogramPerimeter;whiteSpace=wrap;html=1;fixedSize=1;" parent="cr6V4LzBoTKODNCof_65-49" vertex="1">
          <mxGeometry x="240" y="310" width="210" height="80" as="geometry" />
        </mxCell>
        <mxCell id="cr6V4LzBoTKODNCof_65-68" value="&lt;font style=&quot;font-size: 18px;&quot;&gt;&lt;b&gt;A=B*H&lt;/b&gt;&lt;/font&gt;" style="rounded=0;whiteSpace=wrap;html=1;" parent="cr6V4LzBoTKODNCof_65-49" vertex="1">
          <mxGeometry x="40" y="340" width="140" height="80" as="geometry" />
        </mxCell>
        <mxCell id="cr6V4LzBoTKODNCof_65-66" value="" style="endArrow=classic;html=1;rounded=0;exitX=0.5;exitY=1;exitDx=0;exitDy=0;entryX=0.5;entryY=0;entryDx=0;entryDy=0;" parent="cr6V4LzBoTKODNCof_65-49" source="cr6V4LzBoTKODNCof_65-63" target="cr6V4LzBoTKODNCof_65-62" edge="1">
          <mxGeometry width="50" height="50" relative="1" as="geometry">
            <mxPoint x="170" y="310" as="sourcePoint" />
            <mxPoint x="180" y="380" as="targetPoint" />
          </mxGeometry>
        </mxCell>
        <mxCell id="cr6V4LzBoTKODNCof_65-58" value="" style="endArrow=classic;html=1;rounded=0;exitX=0;exitY=0.5;exitDx=0;exitDy=0;entryX=0.5;entryY=0;entryDx=0;entryDy=0;" parent="cr6V4LzBoTKODNCof_65-49" source="cr6V4LzBoTKODNCof_65-55" target="cr6V4LzBoTKODNCof_65-68" edge="1">
          <mxGeometry width="50" height="50" relative="1" as="geometry">
            <mxPoint x="60" y="310" as="sourcePoint" />
            <mxPoint x="100" y="280" as="targetPoint" />
          </mxGeometry>
        </mxCell>
        <mxCell id="cr6V4LzBoTKODNCof_65-75" value="SIM" style="edgeLabel;html=1;align=center;verticalAlign=middle;resizable=0;points=[];" parent="cr6V4LzBoTKODNCof_65-58" connectable="0" vertex="1">
          <mxGeometry x="0.059" y="2" relative="1" as="geometry">
            <mxPoint as="offset" />
          </mxGeometry>
        </mxCell>
        <mxCell id="cr6V4LzBoTKODNCof_65-70" value="&lt;font style=&quot;font-size: 18px;&quot;&gt;&lt;b&gt;A&lt;/b&gt;&lt;/font&gt;" style="shape=document;whiteSpace=wrap;html=1;boundedLbl=1;" parent="cr6V4LzBoTKODNCof_65-49" vertex="1">
          <mxGeometry x="60" y="490" width="120" height="80" as="geometry" />
        </mxCell>
        <mxCell id="cr6V4LzBoTKODNCof_65-69" value="" style="endArrow=classic;html=1;rounded=0;exitX=0.5;exitY=1;exitDx=0;exitDy=0;entryX=0.5;entryY=0;entryDx=0;entryDy=0;" parent="cr6V4LzBoTKODNCof_65-49" source="cr6V4LzBoTKODNCof_65-68" target="cr6V4LzBoTKODNCof_65-70" edge="1">
          <mxGeometry width="50" height="50" relative="1" as="geometry">
            <mxPoint x="170" y="310" as="sourcePoint" />
            <mxPoint x="110" y="480" as="targetPoint" />
          </mxGeometry>
        </mxCell>
        <mxCell id="cr6V4LzBoTKODNCof_65-71" value="" style="endArrow=classic;html=1;rounded=0;exitX=1;exitY=0.25;exitDx=0;exitDy=0;entryX=0;entryY=0.5;entryDx=0;entryDy=0;" parent="cr6V4LzBoTKODNCof_65-49" source="cr6V4LzBoTKODNCof_65-70" target="cr6V4LzBoTKODNCof_65-62" edge="1">
          <mxGeometry width="50" height="50" relative="1" as="geometry">
            <mxPoint x="170" y="310" as="sourcePoint" />
            <mxPoint x="220" y="260" as="targetPoint" />
          </mxGeometry>
        </mxCell>
        <mxCell id="cr6V4LzBoTKODNCof_65-73" value="Área do Quadrado" style="edgeLabel;html=1;align=center;verticalAlign=middle;resizable=0;points=[];" parent="cr6V4LzBoTKODNCof_65-71" connectable="0" vertex="1">
          <mxGeometry x="0.0833" y="2" relative="1" as="geometry">
            <mxPoint as="offset" />
          </mxGeometry>
        </mxCell>
        <mxCell id="cr6V4LzBoTKODNCof_65-79" value="" style="endArrow=classic;html=1;rounded=0;exitX=1;exitY=0.5;exitDx=0;exitDy=0;entryX=0.5;entryY=0;entryDx=0;entryDy=0;" parent="cr6V4LzBoTKODNCof_65-49" source="cr6V4LzBoTKODNCof_65-55" target="cr6V4LzBoTKODNCof_65-63" edge="1">
          <mxGeometry width="50" height="50" relative="1" as="geometry">
            <mxPoint x="170" y="300" as="sourcePoint" />
            <mxPoint x="220" y="250" as="targetPoint" />
          </mxGeometry>
        </mxCell>
        <mxCell id="cr6V4LzBoTKODNCof_65-80" value="NÃO" style="edgeLabel;html=1;align=center;verticalAlign=middle;resizable=0;points=[];" parent="cr6V4LzBoTKODNCof_65-79" connectable="0" vertex="1">
          <mxGeometry x="-0.2761" y="2" relative="1" as="geometry">
            <mxPoint y="-1" as="offset" />
          </mxGeometry>
        </mxCell>
        <mxCell id="cr6V4LzBoTKODNCof_65-81" value="4" style="swimlane;" parent="1" vertex="1">
          <mxGeometry x="1400" y="20" width="580" height="630" as="geometry" />
        </mxCell>
        <mxCell id="cr6V4LzBoTKODNCof_65-82" value="&lt;font style=&quot;font-size: 18px;&quot;&gt;&lt;b&gt;ÍNICIO&lt;/b&gt;&lt;/font&gt;" style="ellipse;whiteSpace=wrap;html=1;" parent="cr6V4LzBoTKODNCof_65-81" vertex="1">
          <mxGeometry x="120" y="40" width="120" height="80" as="geometry" />
        </mxCell>
        <mxCell id="cr6V4LzBoTKODNCof_65-85" value="&lt;font style=&quot;font-size: 18px;&quot;&gt;&lt;b&gt;B&lt;/b&gt;&lt;/font&gt;" style="shape=parallelogram;perimeter=parallelogramPerimeter;whiteSpace=wrap;html=1;fixedSize=1;" parent="cr6V4LzBoTKODNCof_65-81" vertex="1">
          <mxGeometry x="30" y="140" width="120" height="60" as="geometry" />
        </mxCell>
        <mxCell id="cr6V4LzBoTKODNCof_65-83" value="" style="endArrow=classic;html=1;rounded=0;exitX=0;exitY=1;exitDx=0;exitDy=0;entryX=0.5;entryY=0;entryDx=0;entryDy=0;" parent="cr6V4LzBoTKODNCof_65-81" source="cr6V4LzBoTKODNCof_65-82" target="cr6V4LzBoTKODNCof_65-85" edge="1">
          <mxGeometry width="50" height="50" relative="1" as="geometry">
            <mxPoint x="190" y="300" as="sourcePoint" />
            <mxPoint x="190" y="140" as="targetPoint" />
          </mxGeometry>
        </mxCell>
        <mxCell id="cr6V4LzBoTKODNCof_65-128" value="Base" style="edgeLabel;html=1;align=center;verticalAlign=middle;resizable=0;points=[];" parent="cr6V4LzBoTKODNCof_65-83" connectable="0" vertex="1">
          <mxGeometry x="-0.2806" y="3" relative="1" as="geometry">
            <mxPoint as="offset" />
          </mxGeometry>
        </mxCell>
        <mxCell id="cr6V4LzBoTKODNCof_65-86" value="&lt;font style=&quot;font-size: 18px;&quot;&gt;&lt;b&gt;H&lt;/b&gt;&lt;/font&gt;" style="shape=parallelogram;perimeter=parallelogramPerimeter;whiteSpace=wrap;html=1;fixedSize=1;" parent="cr6V4LzBoTKODNCof_65-81" vertex="1">
          <mxGeometry x="190" y="140" width="120" height="60" as="geometry" />
        </mxCell>
        <mxCell id="cr6V4LzBoTKODNCof_65-84" value="" style="endArrow=classic;html=1;rounded=0;exitX=1;exitY=1;exitDx=0;exitDy=0;entryX=0.5;entryY=0;entryDx=0;entryDy=0;" parent="cr6V4LzBoTKODNCof_65-81" source="cr6V4LzBoTKODNCof_65-82" target="cr6V4LzBoTKODNCof_65-86" edge="1">
          <mxGeometry width="50" height="50" relative="1" as="geometry">
            <mxPoint x="190" y="300" as="sourcePoint" />
            <mxPoint x="350" y="110" as="targetPoint" />
          </mxGeometry>
        </mxCell>
        <mxCell id="cr6V4LzBoTKODNCof_65-129" value="Altura" style="edgeLabel;html=1;align=center;verticalAlign=middle;resizable=0;points=[];" parent="cr6V4LzBoTKODNCof_65-84" connectable="0" vertex="1">
          <mxGeometry x="-0.0883" y="3" relative="1" as="geometry">
            <mxPoint as="offset" />
          </mxGeometry>
        </mxCell>
        <mxCell id="cr6V4LzBoTKODNCof_65-88" value="&lt;font style=&quot;font-size: 18px;&quot;&gt;&lt;b&gt;B!=H&lt;/b&gt;&lt;/font&gt;" style="rhombus;whiteSpace=wrap;html=1;" parent="cr6V4LzBoTKODNCof_65-81" vertex="1">
          <mxGeometry x="110" y="230" width="110" height="100" as="geometry" />
        </mxCell>
        <mxCell id="cr6V4LzBoTKODNCof_65-87" value="" style="endArrow=classic;html=1;rounded=0;exitX=0.5;exitY=1;exitDx=0;exitDy=0;" parent="cr6V4LzBoTKODNCof_65-81" source="cr6V4LzBoTKODNCof_65-85" target="cr6V4LzBoTKODNCof_65-88" edge="1">
          <mxGeometry width="50" height="50" relative="1" as="geometry">
            <mxPoint x="190" y="300" as="sourcePoint" />
            <mxPoint x="210" y="240" as="targetPoint" />
          </mxGeometry>
        </mxCell>
        <mxCell id="cr6V4LzBoTKODNCof_65-89" value="" style="endArrow=classic;html=1;rounded=0;entryX=1;entryY=0;entryDx=0;entryDy=0;exitX=0.5;exitY=1;exitDx=0;exitDy=0;" parent="cr6V4LzBoTKODNCof_65-81" source="cr6V4LzBoTKODNCof_65-86" target="cr6V4LzBoTKODNCof_65-88" edge="1">
          <mxGeometry width="50" height="50" relative="1" as="geometry">
            <mxPoint x="190" y="300" as="sourcePoint" />
            <mxPoint x="240" y="250" as="targetPoint" />
          </mxGeometry>
        </mxCell>
        <mxCell id="cr6V4LzBoTKODNCof_65-92" value="&lt;font style=&quot;font-size: 18px;&quot;&gt;&lt;b&gt;A=B*H&lt;/b&gt;&lt;/font&gt;" style="rounded=0;whiteSpace=wrap;html=1;" parent="cr6V4LzBoTKODNCof_65-81" vertex="1">
          <mxGeometry x="310" y="220" width="170" height="90" as="geometry" />
        </mxCell>
        <mxCell id="cr6V4LzBoTKODNCof_65-90" value="" style="endArrow=classic;html=1;rounded=0;exitX=1;exitY=0.5;exitDx=0;exitDy=0;entryX=0;entryY=0.5;entryDx=0;entryDy=0;" parent="cr6V4LzBoTKODNCof_65-81" source="cr6V4LzBoTKODNCof_65-88" target="cr6V4LzBoTKODNCof_65-92" edge="1">
          <mxGeometry width="50" height="50" relative="1" as="geometry">
            <mxPoint x="190" y="300" as="sourcePoint" />
            <mxPoint x="360" y="270" as="targetPoint" />
          </mxGeometry>
        </mxCell>
        <mxCell id="cr6V4LzBoTKODNCof_65-91" value="SIM" style="edgeLabel;html=1;align=center;verticalAlign=middle;resizable=0;points=[];" parent="cr6V4LzBoTKODNCof_65-90" connectable="0" vertex="1">
          <mxGeometry x="0.1636" y="2" relative="1" as="geometry">
            <mxPoint as="offset" />
          </mxGeometry>
        </mxCell>
        <mxCell id="cr6V4LzBoTKODNCof_65-94" value="&lt;font style=&quot;font-size: 18px;&quot;&gt;&lt;b&gt;Os dados são de um Quadrado&lt;/b&gt;&lt;/font&gt;" style="shape=parallelogram;perimeter=parallelogramPerimeter;whiteSpace=wrap;html=1;fixedSize=1;" parent="cr6V4LzBoTKODNCof_65-81" vertex="1">
          <mxGeometry x="50" y="390" width="220" height="80" as="geometry" />
        </mxCell>
        <mxCell id="cr6V4LzBoTKODNCof_65-93" value="" style="endArrow=classic;html=1;rounded=0;exitX=0.5;exitY=1;exitDx=0;exitDy=0;entryX=0.5;entryY=0;entryDx=0;entryDy=0;" parent="cr6V4LzBoTKODNCof_65-81" source="cr6V4LzBoTKODNCof_65-88" target="cr6V4LzBoTKODNCof_65-94" edge="1">
          <mxGeometry width="50" height="50" relative="1" as="geometry">
            <mxPoint x="190" y="300" as="sourcePoint" />
            <mxPoint x="170" y="380" as="targetPoint" />
          </mxGeometry>
        </mxCell>
        <mxCell id="cr6V4LzBoTKODNCof_65-95" value="NÃO" style="edgeLabel;html=1;align=center;verticalAlign=middle;resizable=0;points=[];" parent="cr6V4LzBoTKODNCof_65-93" connectable="0" vertex="1">
          <mxGeometry x="-0.3298" y="1" relative="1" as="geometry">
            <mxPoint as="offset" />
          </mxGeometry>
        </mxCell>
        <mxCell id="cr6V4LzBoTKODNCof_65-97" value="&lt;font style=&quot;font-size: 18px;&quot;&gt;&lt;b&gt;A&lt;/b&gt;&lt;/font&gt;" style="shape=document;whiteSpace=wrap;html=1;boundedLbl=1;" parent="cr6V4LzBoTKODNCof_65-81" vertex="1">
          <mxGeometry x="320" y="370" width="120" height="80" as="geometry" />
        </mxCell>
        <mxCell id="cr6V4LzBoTKODNCof_65-96" value="" style="endArrow=classic;html=1;rounded=0;exitX=0.5;exitY=1;exitDx=0;exitDy=0;entryX=0.5;entryY=0;entryDx=0;entryDy=0;" parent="cr6V4LzBoTKODNCof_65-81" source="cr6V4LzBoTKODNCof_65-92" target="cr6V4LzBoTKODNCof_65-97" edge="1">
          <mxGeometry width="50" height="50" relative="1" as="geometry">
            <mxPoint x="190" y="300" as="sourcePoint" />
            <mxPoint x="380" y="370" as="targetPoint" />
          </mxGeometry>
        </mxCell>
        <mxCell id="cr6V4LzBoTKODNCof_65-99" value="&lt;font style=&quot;font-size: 18px;&quot;&gt;&lt;b&gt;FIM&lt;/b&gt;&lt;/font&gt;" style="ellipse;whiteSpace=wrap;html=1;" parent="cr6V4LzBoTKODNCof_65-81" vertex="1">
          <mxGeometry x="230" y="500" width="120" height="80" as="geometry" />
        </mxCell>
        <mxCell id="cr6V4LzBoTKODNCof_65-98" value="" style="endArrow=classic;html=1;rounded=0;exitX=0.433;exitY=0.925;exitDx=0;exitDy=0;exitPerimeter=0;entryX=1;entryY=0;entryDx=0;entryDy=0;" parent="cr6V4LzBoTKODNCof_65-81" source="cr6V4LzBoTKODNCof_65-97" target="cr6V4LzBoTKODNCof_65-99" edge="1">
          <mxGeometry width="50" height="50" relative="1" as="geometry">
            <mxPoint x="190" y="300" as="sourcePoint" />
            <mxPoint x="240" y="250" as="targetPoint" />
          </mxGeometry>
        </mxCell>
        <mxCell id="cr6V4LzBoTKODNCof_65-132" value="Área do Rêtangulo" style="edgeLabel;html=1;align=center;verticalAlign=middle;resizable=0;points=[];" parent="cr6V4LzBoTKODNCof_65-98" connectable="0" vertex="1">
          <mxGeometry x="-0.3579" y="-1" relative="1" as="geometry">
            <mxPoint as="offset" />
          </mxGeometry>
        </mxCell>
        <mxCell id="cr6V4LzBoTKODNCof_65-100" value="" style="endArrow=classic;html=1;rounded=0;exitX=0.75;exitY=1;exitDx=0;exitDy=0;entryX=0;entryY=0;entryDx=0;entryDy=0;" parent="cr6V4LzBoTKODNCof_65-81" source="cr6V4LzBoTKODNCof_65-94" target="cr6V4LzBoTKODNCof_65-99" edge="1">
          <mxGeometry width="50" height="50" relative="1" as="geometry">
            <mxPoint x="190" y="300" as="sourcePoint" />
            <mxPoint x="240" y="250" as="targetPoint" />
          </mxGeometry>
        </mxCell>
        <mxCell id="cr6V4LzBoTKODNCof_65-102" value="5" style="swimlane;" parent="1" vertex="1">
          <mxGeometry x="1980" y="20" width="380" height="630" as="geometry" />
        </mxCell>
        <mxCell id="cr6V4LzBoTKODNCof_65-103" value="&lt;font style=&quot;font-size: 18px;&quot;&gt;&lt;b&gt;ÍNICIO&lt;/b&gt;&lt;/font&gt;" style="ellipse;whiteSpace=wrap;html=1;" parent="cr6V4LzBoTKODNCof_65-102" vertex="1">
          <mxGeometry x="160" y="40" width="120" height="80" as="geometry" />
        </mxCell>
        <mxCell id="cr6V4LzBoTKODNCof_65-106" value="&lt;font style=&quot;font-size: 18px;&quot;&gt;&lt;b&gt;H&lt;/b&gt;&lt;/font&gt;" style="shape=parallelogram;perimeter=parallelogramPerimeter;whiteSpace=wrap;html=1;fixedSize=1;" parent="cr6V4LzBoTKODNCof_65-102" vertex="1">
          <mxGeometry x="210" y="140" width="120" height="60" as="geometry" />
        </mxCell>
        <mxCell id="cr6V4LzBoTKODNCof_65-107" value="&lt;font style=&quot;font-size: 18px;&quot;&gt;&lt;b&gt;B&lt;/b&gt;&lt;/font&gt;" style="shape=parallelogram;perimeter=parallelogramPerimeter;whiteSpace=wrap;html=1;fixedSize=1;" parent="cr6V4LzBoTKODNCof_65-102" vertex="1">
          <mxGeometry x="70" y="140" width="120" height="60" as="geometry" />
        </mxCell>
        <mxCell id="cr6V4LzBoTKODNCof_65-104" value="" style="endArrow=classic;html=1;rounded=0;exitX=1;exitY=1;exitDx=0;exitDy=0;entryX=0.25;entryY=0;entryDx=0;entryDy=0;" parent="cr6V4LzBoTKODNCof_65-102" source="cr6V4LzBoTKODNCof_65-103" target="cr6V4LzBoTKODNCof_65-106" edge="1">
          <mxGeometry width="50" height="50" relative="1" as="geometry">
            <mxPoint x="-70" y="300" as="sourcePoint" />
            <mxPoint x="152" y="150" as="targetPoint" />
          </mxGeometry>
        </mxCell>
        <mxCell id="cr6V4LzBoTKODNCof_65-116" value="Altura" style="edgeLabel;html=1;align=center;verticalAlign=middle;resizable=0;points=[];" parent="cr6V4LzBoTKODNCof_65-104" connectable="0" vertex="1">
          <mxGeometry x="0.025" y="3" relative="1" as="geometry">
            <mxPoint as="offset" />
          </mxGeometry>
        </mxCell>
        <mxCell id="cr6V4LzBoTKODNCof_65-105" value="" style="endArrow=classic;html=1;rounded=0;exitX=0;exitY=1;exitDx=0;exitDy=0;entryX=0.75;entryY=0;entryDx=0;entryDy=0;" parent="cr6V4LzBoTKODNCof_65-102" source="cr6V4LzBoTKODNCof_65-103" target="cr6V4LzBoTKODNCof_65-107" edge="1">
          <mxGeometry width="50" height="50" relative="1" as="geometry">
            <mxPoint x="-70" y="300" as="sourcePoint" />
            <mxPoint x="60" y="150" as="targetPoint" />
          </mxGeometry>
        </mxCell>
        <mxCell id="cr6V4LzBoTKODNCof_65-115" value="Base" style="edgeLabel;html=1;align=center;verticalAlign=middle;resizable=0;points=[];" parent="cr6V4LzBoTKODNCof_65-105" connectable="0" vertex="1">
          <mxGeometry x="0.1322" y="2" relative="1" as="geometry">
            <mxPoint y="-1" as="offset" />
          </mxGeometry>
        </mxCell>
        <mxCell id="cr6V4LzBoTKODNCof_65-110" value="&lt;font style=&quot;font-size: 18px;&quot;&gt;&lt;b&gt;A=B*H/2&lt;/b&gt;&lt;/font&gt;" style="rounded=0;whiteSpace=wrap;html=1;" parent="cr6V4LzBoTKODNCof_65-102" vertex="1">
          <mxGeometry x="110" y="250" width="120" height="60" as="geometry" />
        </mxCell>
        <mxCell id="cr6V4LzBoTKODNCof_65-108" value="" style="endArrow=classic;html=1;rounded=0;exitX=0.5;exitY=1;exitDx=0;exitDy=0;entryX=0.25;entryY=0;entryDx=0;entryDy=0;" parent="cr6V4LzBoTKODNCof_65-102" source="cr6V4LzBoTKODNCof_65-107" target="cr6V4LzBoTKODNCof_65-110" edge="1">
          <mxGeometry width="50" height="50" relative="1" as="geometry">
            <mxPoint x="250" y="300" as="sourcePoint" />
            <mxPoint x="170" y="250" as="targetPoint" />
          </mxGeometry>
        </mxCell>
        <mxCell id="cr6V4LzBoTKODNCof_65-109" value="" style="endArrow=classic;html=1;rounded=0;exitX=0.25;exitY=1;exitDx=0;exitDy=0;entryX=0.75;entryY=0;entryDx=0;entryDy=0;" parent="cr6V4LzBoTKODNCof_65-102" source="cr6V4LzBoTKODNCof_65-106" target="cr6V4LzBoTKODNCof_65-110" edge="1">
          <mxGeometry width="50" height="50" relative="1" as="geometry">
            <mxPoint x="250" y="300" as="sourcePoint" />
            <mxPoint x="230" y="240" as="targetPoint" />
          </mxGeometry>
        </mxCell>
        <mxCell id="cr6V4LzBoTKODNCof_65-111" value="&lt;font style=&quot;font-size: 18px;&quot;&gt;&lt;b&gt;FIM&lt;/b&gt;&lt;/font&gt;" style="ellipse;whiteSpace=wrap;html=1;" parent="cr6V4LzBoTKODNCof_65-102" vertex="1">
          <mxGeometry x="110" y="500" width="120" height="80" as="geometry" />
        </mxCell>
        <mxCell id="cr6V4LzBoTKODNCof_65-113" value="&lt;font style=&quot;font-size: 18px;&quot;&gt;&lt;b&gt;A&lt;/b&gt;&lt;/font&gt;" style="shape=document;whiteSpace=wrap;html=1;boundedLbl=1;" parent="cr6V4LzBoTKODNCof_65-102" vertex="1">
          <mxGeometry x="110" y="370" width="120" height="80" as="geometry" />
        </mxCell>
        <mxCell id="cr6V4LzBoTKODNCof_65-117" value="" style="endArrow=classic;html=1;rounded=0;exitX=0.5;exitY=1;exitDx=0;exitDy=0;entryX=0.5;entryY=0;entryDx=0;entryDy=0;" parent="cr6V4LzBoTKODNCof_65-102" source="cr6V4LzBoTKODNCof_65-110" target="cr6V4LzBoTKODNCof_65-113" edge="1">
          <mxGeometry width="50" height="50" relative="1" as="geometry">
            <mxPoint x="250" y="300" as="sourcePoint" />
            <mxPoint x="300" y="250" as="targetPoint" />
          </mxGeometry>
        </mxCell>
        <mxCell id="cr6V4LzBoTKODNCof_65-119" value="" style="endArrow=classic;html=1;rounded=0;exitX=0.483;exitY=0.85;exitDx=0;exitDy=0;exitPerimeter=0;entryX=0.5;entryY=0;entryDx=0;entryDy=0;" parent="cr6V4LzBoTKODNCof_65-102" source="cr6V4LzBoTKODNCof_65-113" target="cr6V4LzBoTKODNCof_65-111" edge="1">
          <mxGeometry width="50" height="50" relative="1" as="geometry">
            <mxPoint x="250" y="300" as="sourcePoint" />
            <mxPoint x="300" y="250" as="targetPoint" />
          </mxGeometry>
        </mxCell>
        <mxCell id="cr6V4LzBoTKODNCof_65-133" value="Área do Triangulo" style="edgeLabel;html=1;align=center;verticalAlign=middle;resizable=0;points=[];" parent="cr6V4LzBoTKODNCof_65-119" connectable="0" vertex="1">
          <mxGeometry x="-0.2266" y="-1" relative="1" as="geometry">
            <mxPoint as="offset" />
          </mxGeometry>
        </mxCell>
        <mxCell id="cr6V4LzBoTKODNCof_65-120" value="6" style="swimlane;" parent="1" vertex="1">
          <mxGeometry x="2360" y="20" width="310" height="630" as="geometry" />
        </mxCell>
        <mxCell id="cr6V4LzBoTKODNCof_65-121" value="&lt;font style=&quot;font-size: 18px;&quot;&gt;&lt;b&gt;ÍNICIO&lt;/b&gt;&lt;/font&gt;" style="ellipse;whiteSpace=wrap;html=1;" parent="cr6V4LzBoTKODNCof_65-120" vertex="1">
          <mxGeometry x="90" y="30" width="120" height="80" as="geometry" />
        </mxCell>
        <mxCell id="cr6V4LzBoTKODNCof_65-123" value="&lt;font style=&quot;font-size: 18px;&quot;&gt;&lt;b&gt;R&lt;/b&gt;&lt;/font&gt;" style="shape=parallelogram;perimeter=parallelogramPerimeter;whiteSpace=wrap;html=1;fixedSize=1;" parent="cr6V4LzBoTKODNCof_65-120" vertex="1">
          <mxGeometry x="160" y="160" width="120" height="60" as="geometry" />
        </mxCell>
        <mxCell id="cr6V4LzBoTKODNCof_65-124" value="" style="endArrow=classic;html=1;rounded=0;exitX=1;exitY=1;exitDx=0;exitDy=0;entryX=0.25;entryY=0;entryDx=0;entryDy=0;" parent="cr6V4LzBoTKODNCof_65-120" source="cr6V4LzBoTKODNCof_65-121" target="cr6V4LzBoTKODNCof_65-123" edge="1">
          <mxGeometry width="50" height="50" relative="1" as="geometry">
            <mxPoint x="210" y="300" as="sourcePoint" />
            <mxPoint x="190" y="140" as="targetPoint" />
          </mxGeometry>
        </mxCell>
        <mxCell id="cr6V4LzBoTKODNCof_65-134" value="Raio" style="edgeLabel;html=1;align=center;verticalAlign=middle;resizable=0;points=[];" parent="cr6V4LzBoTKODNCof_65-124" connectable="0" vertex="1">
          <mxGeometry x="0.08" y="-4" relative="1" as="geometry">
            <mxPoint as="offset" />
          </mxGeometry>
        </mxCell>
        <mxCell id="cr6V4LzBoTKODNCof_65-135" value="&lt;font style=&quot;&quot;&gt;&lt;b style=&quot;&quot;&gt;&lt;span style=&quot;font-size: 18px;&quot;&gt;A=R&lt;/span&gt;&lt;span style=&quot;color: rgb(31, 31, 31); font-family: &amp;quot;Google Sans&amp;quot;, arial, sans-serif-medium, sans-serif; text-align: left; background-color: rgb(255, 255, 255);&quot;&gt;&lt;font style=&quot;font-size: 24px;&quot;&gt;²*&lt;/font&gt;&lt;/span&gt;&lt;span style=&quot;font-size: 18px; color: rgb(77, 81, 86); font-family: arial, sans-serif; text-align: left; background-color: rgb(255, 255, 255);&quot;&gt;π&lt;/span&gt;&lt;/b&gt;&lt;/font&gt;" style="rounded=0;whiteSpace=wrap;html=1;" parent="cr6V4LzBoTKODNCof_65-120" vertex="1">
          <mxGeometry x="70" y="270" width="120" height="60" as="geometry" />
        </mxCell>
        <mxCell id="cr6V4LzBoTKODNCof_65-136" value="" style="endArrow=classic;html=1;rounded=0;exitX=0.5;exitY=1;exitDx=0;exitDy=0;entryX=0.75;entryY=0;entryDx=0;entryDy=0;" parent="cr6V4LzBoTKODNCof_65-120" source="cr6V4LzBoTKODNCof_65-123" target="cr6V4LzBoTKODNCof_65-135" edge="1">
          <mxGeometry width="50" height="50" relative="1" as="geometry">
            <mxPoint x="30" y="300" as="sourcePoint" />
            <mxPoint x="80" y="250" as="targetPoint" />
          </mxGeometry>
        </mxCell>
        <mxCell id="cr6V4LzBoTKODNCof_65-140" value="&lt;span style=&quot;color: rgb(77, 81, 86); font-family: arial, sans-serif; text-align: left; background-color: rgb(255, 255, 255);&quot;&gt;&lt;font style=&quot;font-size: 18px;&quot;&gt;&lt;b&gt;π&lt;/b&gt;&lt;/font&gt;&lt;/span&gt;" style="shape=parallelogram;perimeter=parallelogramPerimeter;whiteSpace=wrap;html=1;fixedSize=1;" parent="cr6V4LzBoTKODNCof_65-120" vertex="1">
          <mxGeometry x="20" y="160" width="120" height="60" as="geometry" />
        </mxCell>
        <mxCell id="cr6V4LzBoTKODNCof_65-139" value="" style="endArrow=classic;html=1;rounded=0;entryX=0.25;entryY=0;entryDx=0;entryDy=0;exitX=0.5;exitY=1;exitDx=0;exitDy=0;" parent="cr6V4LzBoTKODNCof_65-120" source="cr6V4LzBoTKODNCof_65-140" target="cr6V4LzBoTKODNCof_65-135" edge="1">
          <mxGeometry width="50" height="50" relative="1" as="geometry">
            <mxPoint x="320" y="150" as="sourcePoint" />
            <mxPoint x="80" y="250" as="targetPoint" />
          </mxGeometry>
        </mxCell>
        <mxCell id="cr6V4LzBoTKODNCof_65-141" value="" style="endArrow=classic;html=1;rounded=0;exitX=0;exitY=1;exitDx=0;exitDy=0;entryX=0.25;entryY=0;entryDx=0;entryDy=0;" parent="cr6V4LzBoTKODNCof_65-120" source="cr6V4LzBoTKODNCof_65-121" target="cr6V4LzBoTKODNCof_65-140" edge="1">
          <mxGeometry width="50" height="50" relative="1" as="geometry">
            <mxPoint x="30" y="300" as="sourcePoint" />
            <mxPoint x="80" y="250" as="targetPoint" />
          </mxGeometry>
        </mxCell>
        <mxCell id="cr6V4LzBoTKODNCof_65-142" value="&lt;span style=&quot;color: rgb(77, 81, 86); font-family: arial, sans-serif; font-size: 14px; text-align: left; text-wrap: wrap;&quot;&gt;π&lt;/span&gt;" style="edgeLabel;html=1;align=center;verticalAlign=middle;resizable=0;points=[];" parent="cr6V4LzBoTKODNCof_65-141" connectable="0" vertex="1">
          <mxGeometry x="-0.1785" y="1" relative="1" as="geometry">
            <mxPoint as="offset" />
          </mxGeometry>
        </mxCell>
        <mxCell id="cr6V4LzBoTKODNCof_65-145" value="&lt;font style=&quot;font-size: 18px;&quot;&gt;&lt;b&gt;A&lt;/b&gt;&lt;/font&gt;" style="shape=document;whiteSpace=wrap;html=1;boundedLbl=1;" parent="cr6V4LzBoTKODNCof_65-120" vertex="1">
          <mxGeometry x="50" y="380" width="120" height="80" as="geometry" />
        </mxCell>
        <mxCell id="cr6V4LzBoTKODNCof_65-149" value="&lt;font style=&quot;font-size: 18px;&quot;&gt;&lt;b&gt;FIM&lt;/b&gt;&lt;/font&gt;" style="ellipse;whiteSpace=wrap;html=1;" parent="cr6V4LzBoTKODNCof_65-120" vertex="1">
          <mxGeometry x="121" y="490" width="120" height="80" as="geometry" />
        </mxCell>
        <mxCell id="cr6V4LzBoTKODNCof_65-151" value="" style="endArrow=classic;html=1;rounded=0;exitX=0.5;exitY=1;exitDx=0;exitDy=0;entryX=0.5;entryY=0;entryDx=0;entryDy=0;" parent="cr6V4LzBoTKODNCof_65-120" source="cr6V4LzBoTKODNCof_65-135" target="cr6V4LzBoTKODNCof_65-145" edge="1">
          <mxGeometry width="50" height="50" relative="1" as="geometry">
            <mxPoint x="30" y="300" as="sourcePoint" />
            <mxPoint x="80" y="250" as="targetPoint" />
          </mxGeometry>
        </mxCell>
        <mxCell id="cr6V4LzBoTKODNCof_65-153" value="" style="endArrow=classic;html=1;rounded=0;exitX=0.375;exitY=0.963;exitDx=0;exitDy=0;entryX=0;entryY=0;entryDx=0;entryDy=0;exitPerimeter=0;" parent="cr6V4LzBoTKODNCof_65-120" source="cr6V4LzBoTKODNCof_65-145" target="cr6V4LzBoTKODNCof_65-149" edge="1">
          <mxGeometry width="50" height="50" relative="1" as="geometry">
            <mxPoint x="30" y="300" as="sourcePoint" />
            <mxPoint x="80" y="250" as="targetPoint" />
          </mxGeometry>
        </mxCell>
        <mxCell id="cr6V4LzBoTKODNCof_65-155" value="Área do Circulo" style="edgeLabel;html=1;align=center;verticalAlign=middle;resizable=0;points=[];" parent="cr6V4LzBoTKODNCof_65-153" connectable="0" vertex="1">
          <mxGeometry x="-0.0727" y="3" relative="1" as="geometry">
            <mxPoint as="offset" />
          </mxGeometry>
        </mxCell>
      </root>
    </mxGraphModel>
  </diagram>
</mxfile>
